<?xml-stylesheet href="index.css" type="text/css"?>

<svg width="200" height="210" viewBox="0 0 98 33" fill="none" xmlns="http://www.w3.org/2000/svg">
<g id="Cookies">
<path id="o" d="M19.1797 14.4414C17.7812 14.9805 16.8594 15.9922 16.4141 17.4766C16.2578 17.9922 16.1797 18.5742 16.1797 19.2227C16.1797 19.8711 16.2539 20.4531 16.4023 20.9688C16.5508 21.4844 16.75 21.9375 17 22.3281C17.4844 23.0547 18.1562 23.5938 19.0156 23.9453C18.2344 22.8594 17.8438 21.2656 17.8438 19.1641C17.8438 17.0625 18.2891 15.4883 19.1797 14.4414ZM25.1445 22.668C25.5117 22.1992 25.7891 21.6641 25.9766 21.0625C26.1719 20.4609 26.2695 19.9062 26.2695 19.3984C26.2695 18.8906 26.2266 18.4414 26.1406 18.0508C26.0547 17.6602 25.9297 17.2812 25.7656 16.9141C25.6016 16.5469 25.4023 16.2031 25.168 15.8828C24.9336 15.5625 24.6719 15.2812 24.3828 15.0391C23.75 14.5312 23.0586 14.2773 22.3086 14.2773C20.793 14.2773 19.8047 15.168 19.3438 16.9492C19.1719 17.6055 19.0859 18.2148 19.0859 18.7773C19.0859 19.332 19.1016 19.8047 19.1328 20.1953C19.1641 20.5781 19.2188 20.9609 19.2969 21.3438C19.375 21.7188 19.4805 22.082 19.6133 22.4336C19.7461 22.7852 19.918 23.0938 20.1289 23.3594C20.5898 23.9375 21.1797 24.2266 21.8984 24.2266C22.625 24.2266 23.2539 24.0859 23.7852 23.8047C24.3242 23.5156 24.7773 23.1367 25.1445 22.668ZM27.4883 19.2695C27.4883 20.168 27.3203 21.0078 26.9844 21.7891C26.6484 22.5703 26.1953 23.2422 25.625 23.8047C24.4141 24.9844 22.9453 25.5742 21.2188 25.5742C19.3203 25.5742 17.8008 24.9961 16.6602 23.8398C15.5273 22.6914 14.9609 21.1484 14.9609 19.2109C14.9609 17.375 15.5625 15.8516 16.7656 14.6406C17.9531 13.4375 19.4375 12.8359 21.2188 12.8359C23.0312 12.8359 24.5391 13.4688 25.7422 14.7344C26.9062 15.9531 27.4883 17.4648 27.4883 19.2695Z" fill="#F4E076"/>
<path id="kies" d="M47.7969 23.6992H48.2305C48.4258 23.6992 48.75 23.7188 49.2031 23.7578V9.56641C48.6953 9.61328 48.1602 9.63672 47.5977 9.63672H47.5039V23.7227C47.5977 23.707 47.6953 23.6992 47.7969 23.6992ZM53.7383 18.9062C53.5039 19.0469 53 19.2852 52.2266 19.6211C52.7891 21.5117 53.582 22.8047 54.6055 23.5C55.0195 23.7812 55.4922 23.9219 56.0234 23.9219C56.2031 23.9219 56.4688 23.8906 56.8203 23.8281C55.7422 23.25 54.7148 21.6094 53.7383 18.9062ZM57.6289 22.7969C58.0664 22.7969 58.2852 22.3867 58.2852 21.5664V21.1328C58.2852 20.5391 58.2539 20.082 58.1914 19.7617C58.1289 19.4336 58.0938 19.2695 58.0859 19.2695V19.1172C58.0859 18.9531 58.1445 18.8086 58.2617 18.6836C58.3867 18.5586 58.5234 18.4961 58.6719 18.4961C59.0156 18.4961 59.2227 18.6562 59.293 18.9766C59.4492 19.4453 59.5273 20.0586 59.5273 20.8164C59.5273 21.5664 59.4609 22.1914 59.3281 22.6914C59.1953 23.1836 58.9844 23.6094 58.6953 23.9688C58.0859 24.75 57.1953 25.1406 56.0234 25.1406C54.3984 25.1406 53.0547 24.1992 51.9922 22.3164C51.5938 21.6055 51.2734 20.8203 51.0312 19.9609L50.4336 20.0547V23.875C50.8398 23.9219 51.168 23.9609 51.418 23.9922C51.8633 24.0547 52.0859 24.2617 52.0859 24.6133C52.0859 24.8086 52.0195 24.9609 51.8867 25.0703C51.7539 25.1797 51.6211 25.2344 51.4883 25.2344H51.3945C50.082 25.0469 48.9336 24.9531 47.9492 24.9531C46.9727 24.9531 46.0234 25.0469 45.1016 25.2344H44.9844C44.8047 25.2344 44.6562 25.168 44.5391 25.0352C44.4219 24.9102 44.3633 24.7734 44.3633 24.625C44.3633 24.3047 44.5312 24.1016 44.8672 24.0156C45.3359 23.9219 45.8086 23.8516 46.2852 23.8047V9.58984C46.2852 9.58984 45.6836 9.54297 44.4805 9.44922C44.3242 9.42578 44.1953 9.35547 44.0938 9.23828C44 9.12109 43.9531 8.97656 43.9531 8.80469C43.9531 8.625 44.0234 8.48438 44.1641 8.38281C44.3047 8.27344 44.4414 8.21875 44.5742 8.21875H44.6445C44.6523 8.21875 44.7422 8.23047 44.9141 8.25391C45.0859 8.26953 45.3125 8.28906 45.5938 8.3125C46.2656 8.38281 46.9414 8.41797 47.6211 8.41797C48.5039 8.41797 49.1992 8.35156 49.707 8.21875H49.8359C50.0156 8.21875 50.1641 8.28125 50.2812 8.40625C50.3984 8.53125 50.457 8.67188 50.457 8.82812V18.8359C51.6914 18.5938 52.75 18.1523 53.6328 17.5117C54.5234 16.8633 55.2422 15.9453 55.7891 14.7578H55.5195L53.9844 14.6758C53.8281 14.6523 53.6992 14.582 53.5977 14.4648C53.5039 14.3477 53.457 14.2031 53.457 14.0312C53.457 13.8516 53.5273 13.7109 53.668 13.6094C53.8086 13.5078 53.9453 13.457 54.0781 13.457H54.1484L55.5195 13.5273C56.7227 13.5273 57.6992 13.3594 58.4492 13.0234C58.5195 12.9766 58.6211 12.9531 58.7539 12.9531C58.8867 12.9531 59.0117 13.0195 59.1289 13.1523C59.2539 13.2773 59.3164 13.4102 59.3164 13.5508C59.3164 13.8398 59.1953 14.0312 58.9531 14.125C58.4375 14.375 57.8359 14.5508 57.1484 14.6523C56.625 16.0977 55.8438 17.2578 54.8047 18.1328C55.5312 20.2656 56.25 21.6953 56.9609 22.4219C57.1953 22.6719 57.418 22.7969 57.6289 22.7969ZM66.2773 14.7812C65.8789 14.8438 65.3438 14.875 64.6719 14.875H64.5781V23.6992C64.7266 23.6836 64.8711 23.6758 65.0117 23.6758C65.293 23.6758 65.5391 23.6758 65.75 23.6758C65.9609 23.6758 66.1367 23.6836 66.2773 23.6992V14.7812ZM66.1367 9.88281C66.1367 9.64062 66.0508 9.4375 65.8789 9.27344C65.7148 9.10156 65.5117 9.01562 65.2695 9.01562C65.0273 9.01562 64.8242 9.10156 64.6602 9.27344C64.4961 9.4375 64.4141 9.64062 64.4141 9.88281C64.4141 10.125 64.4961 10.3281 64.6602 10.4922C64.8242 10.6562 65.0273 10.7383 65.2695 10.7383C65.5117 10.7383 65.7148 10.6562 65.8789 10.4922C66.0508 10.3281 66.1367 10.125 66.1367 9.88281ZM69.0664 25.293C67.7773 25.0352 66.5742 24.9062 65.457 24.9062C64.3398 24.9062 63.1367 25.0352 61.8477 25.293C61.668 25.293 61.5195 25.2266 61.4023 25.0938C61.293 24.9609 61.2383 24.8203 61.2383 24.6719C61.2383 24.5234 61.2812 24.3906 61.3672 24.2734C61.4609 24.1562 61.6094 24.0781 61.8125 24.0391C62.0234 23.9922 62.2656 23.9531 62.5391 23.9219C62.8203 23.8828 63.0938 23.8438 63.3594 23.8047V14.8281L61.5547 14.6758C61.3984 14.6523 61.2695 14.582 61.168 14.4648C61.0742 14.3477 61.0273 14.2031 61.0273 14.0312C61.0273 13.8516 61.0977 13.7109 61.2383 13.6094C61.3789 13.5078 61.5156 13.457 61.6484 13.457H61.7188C61.7266 13.457 61.8164 13.4688 61.9883 13.4922C62.1602 13.5078 62.3828 13.5273 62.6562 13.5508C63.3984 13.6133 64.0781 13.6445 64.6953 13.6445C65.5547 13.6445 66.25 13.582 66.7812 13.457H66.9102C67.0898 13.457 67.2383 13.5195 67.3555 13.6445C67.4727 13.7617 67.5312 13.8984 67.5312 14.0547L67.5078 23.8047C67.7812 23.8438 68.0547 23.8828 68.3281 23.9219C68.6094 23.9531 68.8594 23.9922 69.0781 24.0391C69.4844 24.1172 69.6875 24.3242 69.6875 24.6602C69.6875 24.8398 69.6211 24.9883 69.4883 25.1055C69.3555 25.2305 69.2148 25.293 69.0664 25.293ZM67.3672 9.88281C67.3672 10.4688 67.1641 10.9609 66.7578 11.3594C66.3359 11.7656 65.8398 11.9688 65.2695 11.9688C64.6914 11.9688 64.1992 11.7656 63.793 11.3594C63.3867 10.9531 63.1836 10.4609 63.1836 9.88281C63.1836 9.30469 63.3867 8.8125 63.793 8.40625C64.1992 8 64.6914 7.79688 65.2695 7.79688C65.8398 7.79688 66.3359 8 66.7578 8.40625C67.1641 8.80469 67.3672 9.29688 67.3672 9.88281ZM75.1367 14.5117C73.082 15.2539 72.0547 16.8125 72.0547 19.1875C72.0547 20.6797 72.5703 21.9297 73.6016 22.9375C73.9219 23.25 74.2891 23.5117 74.7031 23.7227C74.0312 22.7227 73.6953 21.3555 73.6953 19.6211C73.6953 18.3945 73.7852 17.4805 73.9648 16.8789C74.2461 15.9258 74.6367 15.1367 75.1367 14.5117ZM74.9375 19.1172C75.8125 19.3906 76.8164 19.5273 77.9492 19.5273C79.082 19.5273 80.1836 19.2891 81.2539 18.8125V18.6133C81.2539 16.7227 80.6484 15.418 79.4375 14.6992C79.0156 14.4492 78.5078 14.2812 77.9141 14.1953C76.0078 14.4141 75.0156 16.0547 74.9375 19.1172ZM82.4727 18.5898L82.4492 19.2695C82.3711 19.918 81.3398 20.3789 79.3555 20.6523C78.7227 20.7383 78.0508 20.7812 77.3398 20.7812C76.6367 20.7812 75.8438 20.6602 74.9609 20.418C75.1328 22.1914 75.7266 23.3906 76.7422 24.0156C77.1172 24.2422 77.4844 24.3555 77.8438 24.3555C78.2109 24.3555 78.5195 24.332 78.7695 24.2852C79.0195 24.2305 79.2656 24.1562 79.5078 24.0625C80.0547 23.8359 80.4375 23.5625 80.6562 23.2422C80.7891 23.0859 80.9414 23.0078 81.1133 23.0078C81.293 23.0078 81.4453 23.0742 81.5703 23.207C81.6953 23.332 81.7578 23.4766 81.7578 23.6406C81.7578 23.7969 81.707 23.9219 81.6055 24.0156C81.2695 24.5391 80.6445 24.9531 79.7305 25.2578C78.0352 25.8125 76.4062 25.7656 74.8438 25.1172C73.2031 24.4453 72.0391 23.3125 71.3516 21.7188C71.0078 20.9375 70.8359 20.0742 70.8359 19.1289C70.8359 18.1758 70.9844 17.3125 71.2812 16.5391C71.5781 15.7578 72 15.1016 72.5469 14.5703C73.6641 13.4766 75.207 12.9297 77.1758 12.9297C80.707 13.0781 82.4727 14.9648 82.4727 18.5898ZM94.7539 22.4102C94.8633 22.1211 94.918 21.8438 94.918 21.5781C94.918 21.3125 94.8516 21.0586 94.7188 20.8164C94.5938 20.5742 94.4258 20.3672 94.2148 20.1953C94.0039 20.0156 93.7617 19.8672 93.4883 19.75C93.2148 19.625 92.9336 19.5195 92.6445 19.4336C92.3555 19.3477 92.0703 19.2773 91.7891 19.2227C91.5078 19.1602 91.2305 19.0977 90.957 19.0352C90.6914 18.9727 90.3867 18.9062 90.043 18.8359C89.707 18.7656 89.3672 18.6875 89.0234 18.6016C88.6875 18.5078 88.3594 18.3945 88.0391 18.2617C87.7266 18.1289 87.4414 17.9688 87.1836 17.7812C86.6211 17.3828 86.2734 16.8594 86.1406 16.2109C85.9453 16.6328 85.8477 17.0508 85.8477 17.4648C85.8477 17.8789 85.918 18.2266 86.0586 18.5078C86.207 18.7891 86.3984 19.0352 86.6328 19.2461C86.875 19.457 87.1484 19.6367 87.4531 19.7852C87.7578 19.9258 88.0742 20.0469 88.4023 20.1484C88.9805 20.3125 89.4844 20.418 89.9141 20.4648C90.3516 20.5117 90.7109 20.5586 90.9922 20.6055C91.2812 20.6445 91.582 20.6992 91.8945 20.7695C92.207 20.8398 92.5195 20.9258 92.832 21.0273C93.1445 21.1211 93.4336 21.2344 93.6992 21.3672C94.2852 21.6641 94.6367 22.0117 94.7539 22.4102ZM93.4062 15.5195C92.3984 14.7227 91.1094 14.3242 89.5391 14.3242C88.5938 14.3242 87.9219 14.582 87.5234 15.0977C87.3828 15.2852 87.3125 15.5078 87.3125 15.7656C87.3125 16.0234 87.3906 16.2461 87.5469 16.4336C87.7031 16.6133 87.9023 16.7734 88.1445 16.9141C88.3867 17.0547 88.6562 17.1758 88.9531 17.2773C89.2578 17.3789 89.5547 17.4648 89.8438 17.5352C90.1406 17.6055 90.4141 17.6641 90.6641 17.7109C90.9219 17.7578 91.2227 17.8164 91.5664 17.8867C91.918 17.957 92.3789 18.082 92.9492 18.2617C93.5273 18.4336 94.0547 18.6641 94.5312 18.9531C95.6094 19.625 96.1484 20.5273 96.1484 21.6602C96.1484 22.9102 95.5547 23.9141 94.3672 24.6719C93.3047 25.3516 92.1602 25.6914 90.9336 25.6914C88.8789 25.6914 87.1523 25.0938 85.7539 23.8984V24.2969C85.7539 24.4219 85.7617 24.543 85.7773 24.6602V24.707C85.7773 24.8633 85.7227 25.0039 85.6133 25.1289C85.5117 25.2539 85.375 25.3164 85.2031 25.3164C85.0391 25.3164 84.8906 25.2617 84.7578 25.1523C84.6328 25.0508 84.5625 24.9219 84.5469 24.7656C84.5312 24.6094 84.5234 24.4531 84.5234 24.2969V23.8047C84.5234 23.1797 84.543 22.6289 84.582 22.1523C84.6211 21.668 84.6445 21.3828 84.6523 21.2969C84.668 21.2109 84.7305 21.1172 84.8398 21.0156C84.957 20.9062 85.1016 20.8516 85.2734 20.8516C85.4531 20.8516 85.5977 20.9141 85.707 21.0391C85.8164 21.1641 85.8711 21.3008 85.8711 21.4492V21.5195C85.8477 21.7305 85.8242 21.9805 85.8008 22.2695C87.1602 23.7227 88.8711 24.4492 90.9336 24.4492C91.8555 24.4492 92.6016 24.2969 93.1719 23.9922C93.5547 23.7891 93.7461 23.5312 93.7461 23.2188C93.7461 22.5625 92.6953 22.082 90.5938 21.7773C90.3828 21.7461 90.082 21.7109 89.6914 21.6719C89.3086 21.625 88.7891 21.5078 88.1328 21.3203C87.4844 21.125 86.8984 20.8594 86.375 20.5234C85.2109 19.7734 84.6289 18.7773 84.6289 17.5352C84.6289 16.2148 85.1406 15.1289 86.1641 14.2773C87.1016 13.4883 88.2266 13.0938 89.5391 13.0938C91.2344 13.0938 92.6758 13.5039 93.8633 14.3242C94.1602 13.5898 94.4141 13.1719 94.625 13.0703C94.7266 13.0234 94.8438 13 94.9766 13C95.1172 13 95.2461 13.0625 95.3633 13.1875C95.4805 13.3047 95.5391 13.4336 95.5391 13.5742C95.5391 13.7148 95.4492 13.9375 95.2695 14.2422C94.7539 15.125 94.4297 16.1016 94.2969 17.1719C94.2734 17.3203 94.2031 17.4453 94.0859 17.5469C93.9688 17.6484 93.8281 17.6992 93.6641 17.6992C93.5 17.6992 93.3594 17.6367 93.2422 17.5117C93.125 17.3789 93.0664 17.2344 93.0664 17.0781V16.9844C93.1523 16.5 93.2656 16.0117 93.4062 15.5195Z" fill="#AFAFAF"/>
<path id="c" d="M5.47266 24.1562C4.43359 23.0703 3.91406 21.543 3.91406 19.5742C3.91406 18.3398 4.11719 17.1562 4.52344 16.0234C4.92188 14.9375 5.375 14.2266 5.88281 13.8906C3.39844 14.5 2.15625 16.3477 2.15625 19.4336C2.15625 21.2539 2.78906 22.6055 4.05469 23.4883C4.46875 23.7773 4.94141 24 5.47266 24.1562ZM12.3164 17.2188C12.293 17.375 12.2188 17.5039 12.0938 17.6055C11.9766 17.707 11.8398 17.7578 11.6836 17.7578C11.5273 17.7578 11.3906 17.7031 11.2734 17.5938C11.1641 17.4844 11.1055 17.3047 11.0977 17.0547C11.0898 16.7969 11.0156 16.4844 10.875 16.1172C10.7344 15.75 10.543 15.4141 10.3008 15.1094C9.73828 14.4062 9.12891 14.0547 8.47266 14.0547C7.66797 14.0547 6.98828 14.3906 6.43359 15.0625C5.76953 15.8672 5.35938 17.0195 5.20312 18.5195C5.15625 18.918 5.13281 19.3359 5.13281 19.7734C5.13281 20.2031 5.19141 20.6914 5.30859 21.2383C5.43359 21.7852 5.62109 22.2734 5.87109 22.7031C6.43359 23.6875 7.21875 24.1797 8.22656 24.1797C8.97656 24.1797 9.66406 23.8594 10.2891 23.2188C10.8594 22.6328 11.2383 21.9805 11.4258 21.2617C11.5117 20.9258 11.7109 20.7578 12.0234 20.7578C12.1953 20.7578 12.3398 20.8242 12.457 20.957C12.582 21.082 12.6445 21.1953 12.6445 21.2969C12.6445 21.3984 12.625 21.5234 12.5859 21.6719C12.5547 21.8125 12.4727 22.0352 12.3398 22.3398C12.207 22.6445 12.0312 22.9492 11.8125 23.2539C11.6016 23.5586 11.3438 23.8555 11.0391 24.1445C10.7344 24.4258 10.3867 24.6758 9.99609 24.8945C9.12891 25.3789 8.20703 25.6211 7.23047 25.6211C6.26172 25.6211 5.39844 25.4688 4.64062 25.1641C3.88281 24.8672 3.23047 24.4453 2.68359 23.8984C1.51953 22.75 0.9375 21.2617 0.9375 19.4336C0.9375 17.4023 1.46875 15.7578 2.53125 14.5C3.64062 13.1797 5.15625 12.5195 7.07812 12.5195C7.96875 12.5195 8.79688 12.6992 9.5625 13.0586C10.3281 13.4102 10.957 13.9414 11.4492 14.6523L11.8359 12.2617C11.8594 12.1133 11.9258 11.9922 12.0352 11.8984C12.1523 11.8047 12.2969 11.7578 12.4688 11.7578C12.6406 11.7578 12.7812 11.8242 12.8906 11.957C13 12.0898 13.0547 12.2227 13.0547 12.3555V12.4492L12.3164 17.2188Z" fill="#AFAFAF"/>
<path id="o_2" d="M34.1797 14.4414C32.7812 14.9805 31.8594 15.9922 31.4141 17.4766C31.2578 17.9922 31.1797 18.5742 31.1797 19.2227C31.1797 19.8711 31.2539 20.4531 31.4023 20.9688C31.5508 21.4844 31.75 21.9375 32 22.3281C32.4844 23.0547 33.1562 23.5938 34.0156 23.9453C33.2344 22.8594 32.8438 21.2656 32.8438 19.1641C32.8438 17.0625 33.2891 15.4883 34.1797 14.4414ZM40.1445 22.668C40.5117 22.1992 40.7891 21.6641 40.9766 21.0625C41.1719 20.4609 41.2695 19.9062 41.2695 19.3984C41.2695 18.8906 41.2266 18.4414 41.1406 18.0508C41.0547 17.6602 40.9297 17.2812 40.7656 16.9141C40.6016 16.5469 40.4023 16.2031 40.168 15.8828C39.9336 15.5625 39.6719 15.2812 39.3828 15.0391C38.75 14.5312 38.0586 14.2773 37.3086 14.2773C35.793 14.2773 34.8047 15.168 34.3438 16.9492C34.1719 17.6055 34.0859 18.2148 34.0859 18.7773C34.0859 19.332 34.1016 19.8047 34.1328 20.1953C34.1641 20.5781 34.2188 20.9609 34.2969 21.3438C34.375 21.7188 34.4805 22.082 34.6133 22.4336C34.7461 22.7852 34.918 23.0938 35.1289 23.3594C35.5898 23.9375 36.1797 24.2266 36.8984 24.2266C37.625 24.2266 38.2539 24.0859 38.7852 23.8047C39.3242 23.5156 39.7773 23.1367 40.1445 22.668ZM42.4883 19.2695C42.4883 20.168 42.3203 21.0078 41.9844 21.7891C41.6484 22.5703 41.1953 23.2422 40.625 23.8047C39.4141 24.9844 37.9453 25.5742 36.2188 25.5742C34.3203 25.5742 32.8008 24.9961 31.6602 23.8398C30.5273 22.6914 29.9609 21.1484 29.9609 19.2109C29.9609 17.375 30.5625 15.8516 31.7656 14.6406C32.9531 13.4375 34.4375 12.8359 36.2188 12.8359C38.0312 12.8359 39.5391 13.4688 40.7422 14.7344C41.9062 15.9531 42.4883 17.4648 42.4883 19.2695Z" fill="#EDBCE8"/>
</g>
</svg>
